<?xml version="1.0" encoding="UTF-8" standalone="no"?>
<!-- Created with Inkscape (http://www.inkscape.org/) -->

<svg
   xmlns:dc="http://purl.org/dc/elements/1.1/"
   xmlns:cc="http://creativecommons.org/ns#"
   xmlns:rdf="http://www.w3.org/1999/02/22-rdf-syntax-ns#"
   xmlns:svg="http://www.w3.org/2000/svg"
   xmlns="http://www.w3.org/2000/svg"
   xmlns:sodipodi="http://sodipodi.sourceforge.net/DTD/sodipodi-0.dtd"
   xmlns:inkscape="http://www.inkscape.org/namespaces/inkscape"
   width="24"
   height="24"
   id="svg2923"
   version="1.1"
   inkscape:version="0.47 r22583"
   inkscape:export-filename="/home/colkito/Escritorio/tuquito-logo.png"
   inkscape:export-xdpi="90"
   inkscape:export-ydpi="90"
   sodipodi:docname="start-here.svg">
  <defs
     id="defs2925">
    <inkscape:perspective
       sodipodi:type="inkscape:persp3d"
       inkscape:vp_x="0 : 526.18109 : 1"
       inkscape:vp_y="0 : 1000 : 0"
       inkscape:vp_z="744.09448 : 526.18109 : 1"
       inkscape:persp3d-origin="372.04724 : 350.78739 : 1"
       id="perspective2931" />
    <inkscape:perspective
       id="perspective2914"
       inkscape:persp3d-origin="0.5 : 0.33333333 : 1"
       inkscape:vp_z="1 : 0.5 : 1"
       inkscape:vp_y="0 : 1000 : 0"
       inkscape:vp_x="0 : 0.5 : 1"
       sodipodi:type="inkscape:persp3d" />
  </defs>
  <sodipodi:namedview
     id="base"
     pagecolor="#ffffff"
     bordercolor="#666666"
     borderopacity="1.0"
     inkscape:pageopacity="0.0"
     inkscape:pageshadow="2"
     inkscape:zoom="22.627417"
     inkscape:cx="11.697716"
     inkscape:cy="9.6259827"
     inkscape:document-units="px"
     inkscape:current-layer="layer1"
     showgrid="false"
     inkscape:window-width="1920"
     inkscape:window-height="1030"
     inkscape:window-x="0"
     inkscape:window-y="0"
     inkscape:window-maximized="1"
     showguides="true"
     showborder="true"
     borderlayer="false"
     inkscape:showpageshadow="true"
     objecttolerance="20" />
  <metadata
     id="metadata2928">
    <rdf:RDF>
      <cc:Work
         rdf:about="">
        <dc:format>image/svg+xml</dc:format>
        <dc:type
           rdf:resource="http://purl.org/dc/dcmitype/StillImage" />
        <dc:title></dc:title>
      </cc:Work>
    </rdf:RDF>
  </metadata>
  <g
     inkscape:label="Capa 1"
     inkscape:groupmode="layer"
     id="layer1"
     transform="translate(-40.489645,-179.90437)">
    <path
       style="fill:#ffffff;fill-opacity:1;stroke:#000000;stroke-width:2.85714293;stroke-opacity:0.69361704"
       d=""
       id="path2822" />
    <path
       style="fill:#ffffff;fill-opacity:1;stroke:#000000;stroke-width:2.85714293;stroke-opacity:0.69361704"
       d=""
       id="path2824" />
    <path
       style="fill:#ffffff;fill-opacity:1;stroke:#000000;stroke-width:2.85714293;stroke-opacity:0.69361704"
       d=""
       id="path2828" />
    <g
       id="g2818"
       transform="matrix(1.1000041,0,0,1.1000041,-4.3588395,-20.293459)">
      <path
         id="path2820"
         d="m 45.763986,202.74671 c -0.0925,-0.0356 -0.228722,-0.14702 -0.30272,-0.24752 -0.130009,-0.17655 -0.135184,-0.30429 -0.153573,-3.78997 l -0.01903,-3.60727 -0.266693,-0.0358 c -0.358415,-0.0481 -0.859374,-0.41957 -1.107877,-0.82156 l -0.201879,-0.32657 0,-4.24332 c 0,-4.77501 -0.01374,-4.62843 0.507329,-5.40875 0.304211,-0.45556 0.765326,-0.82786 1.294247,-1.04495 0.347589,-0.14267 0.405772,-0.14429 5.815047,-0.16282 4.709502,-0.0161 5.52515,-0.005 5.907205,0.0841 1.023747,0.23743 1.744195,0.78139 2.166558,1.63584 l 0.252884,0.51159 0.01874,4.30053 c 0.01846,4.23658 0.01665,4.30484 -0.121072,4.58936 -0.187446,0.38721 -0.663894,0.81784 -0.967969,0.87488 l -0.241488,0.0453 -3.94e-4,3.4738 c -2.01e-4,2.14153 -0.02648,3.56409 -0.06844,3.70924 -0.03744,0.1295 -0.150785,0.29599 -0.251894,0.36999 -0.18025,0.13192 -0.299791,0.13478 -6.13733,0.14661 -3.687014,0.007 -6.017525,-0.0126 -6.121677,-0.0527 l 2.4e-5,0 z m 11.234287,-1.87656 0,-0.60544 -1.664962,-1.4e-4 c -1.450384,-7e-5 -1.695295,-0.0152 -1.900333,-0.11773 -0.466591,-0.23316 -0.525763,-0.79549 -0.113248,-1.07623 0.216387,-0.14727 0.269145,-0.15136 1.950473,-0.15136 l 1.72807,3e-5 0,-0.60132 0,-0.6013 -1.744283,-0.0209 c -1.648037,-0.0198 -1.754754,-0.0288 -1.934047,-0.16194 -0.246105,-0.18284 -0.34207,-0.54072 -0.215678,-0.80433 0.165444,-0.34505 0.27988,-0.3644 2.161775,-0.36548 l 1.732233,-0.001 0,-0.63908 0,-0.63907 -5.179881,0 -5.17988,0 0,0.63907 0,0.63908 1.647082,0 1.647083,0 0.209602,0.18728 c 0.250315,0.22366 0.289292,0.60594 0.08515,0.83516 -0.257782,0.28945 -0.473032,0.32298 -2.073154,0.32298 l -1.515762,0 0,0.60216 0,0.60215 1.68037,0.0201 1.680371,0.0201 0.175993,0.17612 c 0.262691,0.26287 0.252442,0.60653 -0.02641,0.88554 l -0.216376,0.2165 -1.646974,0.0212 -1.646974,0.0211 0,0.60111 0,0.60111 5.17988,0 5.179882,0 0,-0.60544 z m -8.173448,-8.92859 c 0,-1.80833 0.005,-1.87926 0.154966,-2.20479 0.197078,-0.42775 0.430807,-0.67303 0.854102,-0.89631 0.324632,-0.17123 0.382513,-0.17826 1.660673,-0.20156 1.068126,-0.0195 1.393469,-0.004 1.681779,0.0828 0.545988,0.16331 0.944321,0.49436 1.192555,0.99112 l 0.211468,0.42318 -0.006,1.81853 -0.006,1.81854 1.811582,0.009 c 0.996371,0.005 1.853406,-0.0164 1.904521,-0.048 0.07736,-0.0479 0.09294,-0.72013 0.09294,-4.01207 0,-4.49742 0.0151,-4.36172 -0.539887,-4.85023 -0.568955,-0.50082 -0.342554,-0.48363 -6.346317,-0.48197 -5.086806,0.002 -5.371125,0.008 -5.634047,0.12722 -0.152291,0.0692 -0.359179,0.23362 -0.45975,0.36548 -0.369265,0.48413 -0.373329,0.53631 -0.373329,4.79348 0,3.89979 7.34e-4,3.92139 0.140474,4.01926 0.113813,0.0797 0.474502,0.0999 1.90041,0.10637 l 1.759938,0.008 0,-1.86843 0,0 z m 3.994009,1.80245 c 0.16175,-0.0313 0.320215,-0.098 0.352142,-0.14843 0.03193,-0.0504 0.05851,-0.81196 0.05908,-1.69238 l 0.0011,-1.60074 -0.165121,-0.16512 c -0.163143,-0.16314 -0.179691,-0.16512 -1.382117,-0.16512 -1.202424,0 -1.218974,0.002 -1.382116,0.16512 l -0.165121,0.16512 10e-4,1.53348 c 0.0011,1.76116 0.02081,1.84693 0.437919,1.91074 0.410923,0.0628 1.913344,0.0611 2.24331,-0.003 l 0,0 z"
         style="fill:#ffffff;fill-opacity:1;stroke:#000000;stroke-width:0.25110069;stroke-miterlimit:4;stroke-opacity:0.69361704;stroke-dasharray:none" />
      <path
         transform="translate(40.489645,181.90437)"
         id="path3613"
         d="M 5.8176207,20.721567 5.2945383,20.704457 5.1676516,20.577466 C 5.0469222,20.456637 5.0393703,20.437682 5.0120264,20.186841 4.9962203,20.041842 4.9735144,18.379848 4.9615691,16.49352 l -0.021719,-3.429688 -0.080824,-5.44e-4 C 4.8145736,13.062976 4.6825687,13.042481 4.5656824,13.017714 4.1737892,12.934676 3.8049469,12.649278 3.5144826,12.204331 L 3.356328,11.962063 3.3571517,8.5832599 C 3.3580051,5.0826555 3.3842901,3.7623129 3.4618813,3.3224996 3.515791,3.0169213 3.6044735,2.8128885 3.8274318,2.4814735 4.1916716,1.9400515 4.8396406,1.4698766 5.3530215,1.3744853 5.7101979,1.3081184 14.495751,1.2561113 15.890166,1.3121095 c 0.53897,0.021644 0.727305,0.04123 0.9375,0.097492 0.553696,0.148206 0.998008,0.3877801 1.377435,0.742716 0.239178,0.2237386 0.422973,0.4883185 0.654907,0.9427646 l 0.167465,0.328125 0.01074,4.1104394 c 0.0068,2.6177365 -5.6e-4,4.1919575 -0.02037,4.3349155 -0.04147,0.299219 -0.134269,0.476569 -0.392044,0.749211 -0.242355,0.256332 -0.491671,0.397533 -0.761656,0.431365 l -0.164063,0.02056 -0.002,3.208005 c -0.0023,3.636254 -0.01356,4.030932 -0.120325,4.203676 -0.129624,0.209736 -0.15759,0.215203 -1.237051,0.241832 -1.077746,0.02659 -9.7011771,0.02524 -10.523082,-0.0016 l 7e-7,1e-6 z m 10.8199573,-1.751485 0,-0.75 -1.460937,-8.47e-4 c -2.021158,-0.0012 -2.201594,-0.0251 -2.390895,-0.317045 -0.20916,-0.322572 -0.0041,-0.658406 0.436706,-0.715233 0.1166,-0.01503 0.932704,-0.02779 1.813564,-0.02835 l 1.601562,-0.001 0,-0.745002 0,-0.745003 -1.664062,-0.02092 c -0.915235,-0.01151 -1.734375,-0.03494 -1.820313,-0.05207 -0.199739,-0.03983 -0.29464,-0.109512 -0.38483,-0.282579 -0.127827,-0.245288 -0.05034,-0.519135 0.173342,-0.612594 0.183342,-0.0766 0.756522,-0.102805 2.266176,-0.103587 l 1.429687,-7.4e-4 0,-0.78125 0,-0.78125 -5.3125,0 -5.3125,0 0,0.78125 0,0.78125 1.681875,0 1.681875,0 0.1281669,0.109706 c 0.3118628,0.266943 0.2822678,0.657446 -0.062447,0.823992 -0.2142138,0.103495 -0.6117434,0.128274 -2.0622819,0.128546 l -1.3671875,2.56e-4 0,0.744945 0,0.744946 1.7109375,0.02081 1.7109375,0.02081 0.13138,0.137161 c 0.2296985,0.239807 0.2213478,0.424262 -0.031249,0.69024 l -0.1626313,0.171247 -1.6796875,0.02099 -1.6796875,0.02099 0,0.745183 0,0.745184 5.3124998,0 5.3125,0 0,-0.75 z M 8.488544,10.11852 C 8.4983668,8.3653817 8.5040061,8.1920058 8.5556202,8.0563586 8.7328833,7.5904936 9.0063224,7.279078 9.4240193,7.0673527 9.6763271,6.9394608 9.6980577,6.9343386 10.12049,6.9031827 c 0.239821,-0.017688 0.865602,-0.02634 1.390625,-0.019227 1.053642,0.014275 1.107161,0.022495 1.501463,0.2306069 0.345723,0.1824719 0.569133,0.4298222 0.793323,0.8783322 l 0.144177,0.2884381 0,1.8600001 0,1.859999 0.820313,0.0062 c 1.147201,0.0087 2.654586,-0.005 2.909297,-0.02643 0.332907,-0.02795 0.310645,0.121932 0.331184,-2.2297624 0.0095,-1.0914062 0.0087,-2.8421875 -0.0018,-3.890625 C 17.984994,3.4730421 17.97569,3.4061168 17.615253,3.0282134 17.353507,2.7537834 17.099596,2.5739163 16.876796,2.5051003 16.43296,2.3680133 16.128063,2.3606936 10.871953,2.3609398 5.5983918,2.3611869 5.5678671,2.3619863 5.2632219,2.5078248 5.0767599,2.5970872 4.7287171,2.9462812 4.6309896,3.1421484 4.4127362,3.5795762 4.4036098,3.7694365 4.4034223,7.876332 c -1.75e-4,3.81632 0.00134,3.856625 0.1495657,3.992227 0.1530371,0.139999 0.3572054,0.154008 2.3250235,0.159532 l 1.5998084,0.0045 0.010724,-1.914062 z m 3.944114,1.837147 c 0.298682,-0.0811 0.380845,-0.146568 0.403581,-0.321562 0.0106,-0.08162 0.02869,-0.858985 0.04019,-1.7274814 L 12.897349,8.3275399 12.715616,8.1655645 C 12.578096,8.0429939 12.495181,7.9950999 12.374794,7.9686939 12.268721,7.945428 11.840789,7.9372411 11.090703,7.944128 9.843458,7.9555795 9.9179808,7.943178 9.6629515,8.181728 l -0.1503735,0.1406565 2.5e-4,1.3629113 c 2.813e-4,1.4823092 0.02433,1.8495272 0.13418,2.0487122 0.1409635,0.2556 0.420276,0.300631 1.756189,0.283135 0.651442,-0.0085 0.886076,-0.02254 1.029454,-0.06148 l 7e-6,0 z"
         style="fill:#dfd8c8;fill-opacity:1;stroke:#dfd8c8;stroke-width:0.01709375;stroke-miterlimit:4;stroke-opacity:1;stroke-dasharray:none" />
    </g>
  </g>
</svg>
